<?xml version="1.0" standalone="no"?>
<!DOCTYPE svg PUBLIC "-//W3C//DTD SVG 20010904//EN"
 "http://www.w3.org/TR/2001/REC-SVG-20010904/DTD/svg10.dtd">
<svg version="1.0" xmlns="http://www.w3.org/2000/svg"
 width="394.000000pt" height="394.000000pt" viewBox="0 0 394.000000 394.000000"
 preserveAspectRatio="xMidYMid meet">
<metadata>
Created by potrace 1.14, written by Peter Selinger 2001-2017
</metadata>
<g transform="translate(0.000000,394.000000) scale(0.100000,-0.100000)"
fill="#000000" stroke="none">
<path d="M1593 3840 c-86 -39 -109 -93 -108 -247 l1 -110 -81 -27 c-134 -44
-258 -111 -458 -250 -8 -5 -47 12 -110 49 -77 45 -108 58 -146 60 -56 3 -115
-19 -147 -56 -43 -48 -372 -634 -377 -669 -11 -90 40 -162 157 -221 l63 -32
-14 -58 c-21 -94 -37 -241 -37 -344 1 -70 13 -223 19 -245 4 -11 -17 -28 -68
-58 -88 -50 -122 -82 -138 -129 -20 -62 -7 -121 49 -216 29 -48 52 -92 52 -97
0 -6 4 -10 8 -10 4 0 13 -12 20 -27 7 -16 18 -37 25 -48 11 -17 66 -114 167
-290 76 -132 176 -159 307 -83 l60 36 29 -27 c94 -88 265 -203 379 -255 101
-47 153 -69 170 -70 6 -1 12 -44 15 -97 4 -71 10 -102 24 -124 62 -94 62 -94
487 -95 332 0 363 1 402 18 23 11 52 30 63 43 31 34 51 104 49 172 -2 64 9 78
69 93 82 20 365 182 446 255 74 66 57 65 150 12 66 -37 95 -48 134 -49 61 -3
115 22 149 68 22 30 307 518 349 598 24 45 23 114 -2 166 -23 46 -48 67 -151
123 -44 23 -61 40 -54 51 2 3 6 24 9 46 25 163 24 333 -3 493 -6 35 -8 67 -6
72 3 4 42 29 88 55 131 76 155 104 164 194 5 53 -8 82 -171 360 -60 102 -117
201 -127 220 -68 134 -132 184 -224 178 -39 -3 -71 -16 -148 -62 l-98 -57 -92
70 c-132 100 -271 179 -389 221 l-36 13 -4 141 c-3 120 -6 145 -23 171 -25 39
-41 52 -88 74 -34 16 -72 18 -402 18 -323 0 -369 -2 -402 -17z m780 -124 c21
-22 22 -32 21 -182 l-1 -159 107 -42 c169 -67 344 -174 464 -287 21 -20 43
-36 48 -36 6 0 48 23 95 50 47 28 88 50 93 50 4 0 13 6 19 14 23 27 65 35 100
19 17 -9 31 -19 31 -24 0 -4 72 -133 161 -285 88 -153 164 -287 169 -299 9
-24 -4 -53 -34 -75 -21 -15 -33 -22 -163 -95 -67 -37 -71 -42 -70 -72 1 -18 5
-33 9 -33 3 0 5 -8 3 -17 -1 -10 0 -22 3 -28 3 -5 7 -16 8 -25 14 -109 18
-160 18 -245 0 -93 -10 -230 -19 -258 -2 -7 -6 -28 -9 -48 -3 -20 -8 -43 -11
-51 -5 -11 21 -31 97 -74 127 -72 149 -92 142 -130 -3 -16 -11 -36 -17 -44 -7
-8 -17 -24 -23 -35 -6 -11 -63 -110 -126 -220 -64 -110 -125 -216 -136 -236
-40 -71 -47 -80 -77 -87 -26 -7 -44 0 -127 49 -53 31 -105 60 -115 63 -12 3
-38 -13 -83 -55 -129 -120 -330 -237 -515 -300 -49 -17 -92 -33 -93 -34 -2 -2
-4 -51 -4 -110 -1 -95 -3 -110 -23 -132 l-22 -26 -352 0 c-428 0 -393 -13
-397 150 -1 59 -2 113 -3 120 -1 6 -16 15 -33 18 -52 12 -215 84 -306 136 -91
53 -226 155 -295 224 -25 25 -48 45 -52 45 -4 0 -45 -23 -92 -50 -98 -58 -121
-65 -145 -47 -14 11 -187 295 -211 347 -4 8 -11 22 -17 30 -10 15 -86 144
-120 205 -18 33 -17 69 3 89 6 6 58 39 115 71 95 56 102 62 96 85 -3 14 -8 36
-10 50 -2 14 -8 50 -12 82 -11 75 -7 296 7 378 18 108 22 124 27 142 3 9 7 25
9 35 2 10 7 28 11 40 5 19 -7 29 -99 83 -58 34 -111 68 -118 76 -26 32 -11 71
105 268 64 109 116 200 116 201 0 9 114 191 124 197 22 15 64 8 92 -14 16 -13
29 -21 29 -19 0 3 11 -2 25 -11 120 -75 174 -99 182 -80 9 22 175 138 268 189
97 52 307 133 346 133 11 0 14 29 14 146 0 140 7 178 34 196 6 4 170 8 364 8
l353 0 22 -24z"/>
<path d="M2687 3042 c-34 -37 -22 -66 53 -126 73 -58 106 -68 134 -40 17 16
21 52 8 70 -4 5 -35 33 -70 62 -67 55 -98 64 -125 34z"/>
<path d="M1897 3044 c-1 -1 -31 -5 -67 -8 -86 -9 -212 -39 -275 -66 -136 -58
-193 -91 -302 -180 -130 -105 -240 -244 -299 -380 -8 -19 -21 -48 -28 -65 -28
-63 -45 -128 -71 -270 -13 -70 -5 -255 16 -355 11 -57 25 -112 30 -122 6 -11
12 -28 14 -38 7 -37 68 -155 120 -235 48 -72 162 -199 225 -250 94 -76 265
-166 360 -190 8 -2 39 -11 69 -19 83 -23 146 -30 266 -29 154 1 208 8 338 49
388 123 678 456 752 864 15 83 17 287 3 353 -4 23 -11 57 -13 76 -17 109 -117
326 -200 431 -46 59 -195 200 -250 237 -150 101 -324 168 -490 189 -48 6 -193
12 -198 8z m210 -127 c4 -3 25 -8 47 -11 151 -24 359 -134 487 -257 317 -307
393 -771 191 -1163 -100 -194 -254 -343 -455 -440 -165 -79 -363 -113 -532
-91 -92 12 -134 21 -209 47 -347 119 -609 432 -662 793 -11 73 -8 240 6 315
55 302 253 570 523 707 89 44 229 90 304 99 32 3 60 8 62 10 6 5 228 -3 238
-9z"/>
<path d="M2467 2272 c-2 -6 -1 -650 2 -678 1 -10 116 -12 127 -2 4 5 6 233 4
605 l0 82 -65 0 c-35 0 -66 -3 -68 -7z"/>
<path d="M1471 2233 c-8 -21 -43 -112 -78 -203 -36 -91 -81 -205 -100 -255
-19 -49 -44 -111 -54 -137 l-19 -48 68 0 67 0 35 95 c18 52 36 95 40 96 7 1
201 1 221 0 11 -1 24 -23 39 -63 12 -35 26 -71 31 -80 5 -10 9 -25 9 -33 0
-12 14 -15 70 -15 53 0 70 3 70 14 0 7 -13 44 -29 82 -16 38 -46 112 -66 164
-20 52 -41 106 -47 120 -5 14 -34 86 -62 160 l-52 135 -65 3 -65 3 -13 -38z
m113 -216 c42 -123 43 -121 -32 -122 -35 0 -67 2 -71 5 -9 5 59 200 69 200 3
0 18 -38 34 -83z"/>
<path d="M1888 2258 c-3 -11 -2 -634 1 -661 1 -4 29 -7 64 -5 l62 3 0 122 c0
67 2 124 5 127 3 2 55 6 115 7 119 2 153 10 201 45 79 58 93 216 27 302 -47
62 -84 72 -289 72 -137 0 -183 -3 -186 -12z m349 -116 c31 -17 50 -82 34 -120
-18 -44 -50 -55 -156 -57 -79 -1 -95 2 -96 15 -1 8 -2 52 -3 96 l-1 82 100 -2
c56 -1 110 -7 122 -14z"/>
<path d="M2982 2754 c-31 -21 -28 -51 13 -111 42 -62 135 -242 135 -261 0 -17
30 -75 44 -84 19 -13 54 -9 70 8 19 18 20 52 4 91 -6 15 -12 30 -13 33 -33 97
-146 298 -184 327 -22 17 -42 16 -69 -3z"/>
<path d="M665 1566 c-21 -21 -23 -28 -14 -58 6 -18 13 -42 16 -52 4 -11 24
-55 45 -98 21 -43 38 -82 39 -86 0 -4 24 -41 52 -82 45 -65 56 -75 85 -78 36
-4 61 17 62 50 0 10 -20 48 -44 85 -53 82 -111 196 -132 260 -29 85 -64 104
-109 59z"/>
<path d="M1073 975 c-29 -20 -25 -71 8 -97 56 -44 125 -88 139 -88 24 1 51 26
55 51 5 30 0 38 -50 74 -22 17 -42 32 -45 36 -14 15 -56 39 -70 39 -9 0 -25
-7 -37 -15z"/>
</g>
</svg>
